<svg width="41" height="41" viewBox="0 0 41 41" fill="none" xmlns="http://www.w3.org/2000/svg">
<g clip-path="url(#clip0_1_206)">
<g clip-path="url(#clip1_1_206)">
<path d="M20.97 37.9401C30.635 37.9401 38.47 30.1051 38.47 20.4401C38.47 10.7751 30.635 2.94006 20.97 2.94006C11.305 2.94006 3.46997 10.7751 3.46997 20.4401C3.46997 30.1051 11.305 37.9401 20.97 37.9401Z" fill="#0074BA"/>
<path d="M8.46997 18.0901V18.9776C8.46997 20.0901 9.85747 22.2026 10.97 22.2026H14.545C15.7075 22.2026 16.645 23.1401 16.645 24.3026V26.4526C16.645 26.9026 17.02 27.2776 17.47 27.2776H17.9075C18.17 27.2776 18.5325 27.4526 18.5325 28.1526V30.9651C18.5325 31.7026 19.1325 32.3151 19.8825 32.3151H20.495C20.8575 32.3151 21.195 32.1776 21.445 31.9151L23.57 29.7901L23.645 26.7651C23.6575 26.3526 23.995 26.0276 24.4075 26.0276H24.8325L27.22 22.4651C27.345 22.2151 27.4075 21.9401 27.4075 21.6651V21.2151C27.4075 21.0151 27.245 20.8401 27.045 20.8151C25.8075 20.6151 23.6325 19.6026 23.6325 18.3401V17.7151C23.6325 15.9651 25.0625 15.9651 25.425 15.9651H25.4325C25.7825 15.9651 26.0575 16.2526 26.0575 16.5901V17.6526C26.0575 18.1026 26.4325 18.4776 26.8825 18.4776H27.32L28.7575 17.7526C29.395 17.4276 29.5075 16.5651 28.9575 16.1026L28.67 15.8651C28.2825 15.5276 28.5325 14.7026 29.195 14.7026H31.1325C32.6325 14.7026 33.6325 17.1401 33.6325 18.6401V19.3151C33.6325 19.5276 33.8075 19.7026 34.02 19.7026H34.445C34.72 19.7026 34.97 19.5651 35.12 19.3401L37.7362 15.4113C36.8413 12.4372 35.1723 9.75424 32.9 7.63697C30.6276 5.5197 27.8336 4.04416 24.8037 3.36133L23.545 4.65258H22.2825L21.445 3.81508C21.1825 3.55258 20.82 3.40258 20.445 3.40258H18.845C18.62 3.40258 18.4075 3.45258 18.22 3.55258L16.345 4.49008C16.2435 4.53969 16.1574 4.61586 16.0958 4.71051C16.0341 4.80515 15.9993 4.91472 15.995 5.02758C15.965 5.62758 15.9762 5.84383 15.9887 6.10633C15.9975 6.27633 16.0075 6.46633 16.0075 6.79008C16.0075 7.17758 16.395 7.22758 16.695 7.21508C17.0075 7.19008 17.2575 6.91508 17.2575 6.60258V6.42758C17.2575 6.09008 17.395 5.77758 17.62 5.54008L17.97 5.19008C18.725 5.03758 18.6887 5.81758 18.65 6.64633C18.6412 6.83383 18.6325 7.02133 18.6325 7.20258C18.6325 7.92758 18.145 8.42758 17.4075 8.42758H15.4325C15.0737 8.42008 14.695 8.25758 14.3237 8.09883C14.0887 7.99883 13.8562 7.89883 13.6325 7.84008C13.1075 7.71508 12.395 7.86508 12.395 8.85258V9.24008C12.395 9.47758 12.2075 9.67758 11.9575 9.67758C11.7387 9.67758 11.5288 9.7645 11.3741 9.91921C11.2194 10.0739 11.1325 10.2838 11.1325 10.5026V12.0026C11.1325 12.4401 11.495 12.8026 11.945 12.8026H12.67C13.12 12.8026 13.4325 12.1901 13.4325 11.7401L13.4825 11.3651C13.4825 11.1276 13.67 10.9276 13.92 10.9276H15.1325C15.245 10.9276 15.82 10.9401 16.27 11.3151L16.82 11.7401C17.1075 12.0276 17.4825 12.1776 17.8825 12.1776H18.0575C18.345 12.1776 18.6075 12.0401 18.7575 11.8026L19.5325 10.6526C19.6825 10.4276 19.9325 10.3026 20.195 10.3026H20.6575C20.8575 10.3026 21.02 10.4651 21.02 10.6651V11.5651C21.02 11.9026 21.295 12.1776 21.6325 12.1776H22.095C22.8825 12.1776 23.5325 12.8151 23.5325 13.6026C23.5325 14.0151 23.0825 14.2651 22.72 14.0526C22.0575 13.6526 20.9325 13.3401 20.37 13.4776C19.82 13.6026 18.62 14.6901 18.62 14.6901C18.62 14.6901 17.2075 15.0151 17.245 14.2901V13.9401C17.2575 13.6026 16.9325 13.4526 16.645 13.4526H15.345C14.9575 13.4526 14.5825 13.6026 14.3075 13.8776L13.9075 14.2776C13.6325 14.5526 13.27 14.7026 12.8825 14.7026H11.5575C11.12 14.6901 10.695 14.8651 10.395 15.1776L9.05747 16.5901C8.68247 16.9901 8.46997 17.5276 8.46997 18.0901ZM27.8825 26.6901C27.52 26.6901 27.22 26.9901 27.22 27.3526V28.6776C27.22 29.0401 27.52 29.3401 27.8825 29.3401C28.245 29.3401 28.545 29.0401 28.545 28.6776V27.3526C28.545 26.9776 28.245 26.6901 27.8825 26.6901Z" fill="#00D26A"/>
</g>
</g>
<defs>
<clipPath id="clip0_1_206">
<rect x="0.969971" y="0.440063" width="40" height="40" rx="20" fill="white"/>
</clipPath>
<clipPath id="clip1_1_206">
<rect width="40" height="40" fill="white" transform="translate(0.969971 0.440063)"/>
</clipPath>
</defs>
</svg>
