<svg width="25" height="25" viewBox="0 0 25 25" fill="none" xmlns="http://www.w3.org/2000/svg">
<g clip-path="url(#clip0_1_113)">
<g clip-path="url(#clip1_1_113)">
<path d="M17.48 13.25H19.98V15.25H14.98V9.25H21.98C21.98 8.15 21.08 7.25 19.98 7.25H14.98C13.88 7.25 12.98 8.15 12.98 9.25V15.25C12.98 16.35 13.88 17.25 14.98 17.25H19.98C21.08 17.25 21.98 16.35 21.98 15.25V11.25H17.48V13.25ZM3.98001 13.25H8.98001V15.25H3.98001V17.25H8.98001C10.08 17.25 10.98 16.35 10.98 15.25V13.25C10.98 12.15 10.08 11.25 8.98001 11.25H5.98001V9.25H10.98V7.25H3.98001V13.25Z" fill="#2D4156"/>
</g>
</g>
<defs>
<clipPath id="clip0_1_113">
<rect width="24" height="24" fill="white" transform="translate(0.980011 0.25)"/>
</clipPath>
<clipPath id="clip1_1_113">
<rect width="24" height="24" fill="white" transform="translate(0.980011 0.25)"/>
</clipPath>
</defs>
</svg>
