<svg width="41" height="41" viewBox="0 0 41 41" fill="none" xmlns="http://www.w3.org/2000/svg">
<g clip-path="url(#clip0_1_96)">
<g clip-path="url(#clip1_1_96)">
<path d="M34.2038 7.57612C30.6689 4.04128 25.969 2.09448 20.97 2.09448C15.9709 2.09448 11.2711 4.04128 7.73616 7.57612C4.20131 11.111 2.25452 15.8109 2.25452 20.81C2.25452 25.809 4.20124 30.5089 7.73616 34.0438C11.2711 37.5787 15.9709 39.5254 20.97 39.5254C25.969 39.5254 30.6689 37.5787 34.2038 34.0438C37.7387 30.5089 39.6855 25.809 39.6855 20.81C39.6855 15.8109 37.7387 11.111 34.2038 7.57612ZM31.1283 19.7553C31.0392 16.7252 30.5669 13.8277 29.756 11.2705C31.078 10.8962 32.307 10.4316 33.4551 9.87347C35.8021 12.5495 37.304 15.9834 37.5416 19.7553H31.1283ZM19.9153 37.266C18.2755 36.8013 16.7224 35.2618 15.4584 32.8142C15.2968 32.5006 15.1446 32.1822 15.0019 31.8596C15.9076 31.6875 16.8519 31.5521 17.836 31.4566C18.5275 31.3897 19.221 31.3444 19.9153 31.3207V37.266ZM22.0247 31.3168C23.6908 31.3681 25.3322 31.5494 26.9377 31.8603C26.7951 32.1826 26.643 32.5007 26.4816 32.8141C25.2176 35.2617 23.6644 36.8013 22.0247 37.266V31.3168ZM19.9153 29.2103C19.1575 29.2349 18.3962 29.2828 17.6321 29.357C16.4515 29.4716 15.3205 29.64 14.2398 29.8593C13.4646 27.4736 13.0111 24.7404 12.9218 21.8646H19.9153V29.2103ZM12.9219 19.7553C13.0112 16.879 13.4648 14.1455 14.2401 11.7596C16.0926 12.14 17.9893 12.3582 19.9153 12.4139V19.7553H12.9219ZM19.9153 10.3039C18.2491 10.2526 16.6076 10.0708 15.0019 9.76026C15.1446 9.43765 15.2969 9.11933 15.4584 8.80573C16.7224 6.35808 18.2755 4.81847 19.9153 4.35378V10.3039ZM22.0247 4.35386C23.6644 4.81855 25.2176 6.35815 26.4816 8.80581C26.644 9.12102 26.7969 9.441 26.9402 9.76534C26.1264 9.91831 25.276 10.0412 24.3864 10.1349C23.6014 10.2172 22.8136 10.2718 22.0248 10.2986L22.0247 4.35386ZM28.3558 7.838C27.8387 6.83675 27.2694 5.95823 26.658 5.20761C28.5844 5.91206 30.3447 6.96386 31.8633 8.28659C30.9759 8.67526 30.0323 9.00612 29.0284 9.28308C28.8186 8.78308 28.5945 8.30034 28.3558 7.838ZM13.5842 7.838C13.3466 8.298 13.1236 8.77823 12.9147 9.27558C11.8977 8.99636 10.9558 8.66815 10.0767 8.28659C11.5953 6.96394 13.3556 5.91214 15.282 5.20769C14.6706 5.95823 14.1012 6.83675 13.5842 7.838ZM12.1864 11.263C11.374 13.822 10.9008 16.7222 10.8116 19.7553H4.39834C4.63592 15.9845 6.13694 12.5515 8.4828 9.87581C9.61975 10.4257 10.8455 10.8854 12.1864 11.263ZM10.8116 21.8646C10.9008 24.897 11.3738 27.7965 12.1858 30.3551C10.8594 30.731 9.62499 31.1965 8.48585 31.7475C6.13827 29.0714 4.636 25.637 4.39834 21.8646H10.8116ZM12.9139 32.3425C13.1183 32.8309 13.3419 33.3111 13.5842 33.7819C14.1012 34.7832 14.6706 35.6617 15.2819 36.4123C13.3564 35.7081 11.5967 34.6569 10.0785 33.335C10.9621 32.9507 11.9088 32.6201 12.9139 32.3425ZM29.0244 32.3464C30.0238 32.6235 30.971 32.9556 31.8573 33.3388C30.34 34.6589 28.5818 35.7088 26.658 36.4123C27.2694 35.6617 27.8387 34.7832 28.3558 33.7819C28.593 33.3225 28.8158 32.843 29.0244 32.3464ZM27.6999 29.8601C25.8476 29.4793 23.9507 29.2621 22.0247 29.2064V21.8646H29.0181C28.9287 24.7408 28.4751 27.4743 27.6999 29.8601ZM22.0247 19.7553V12.4097C22.8874 12.3819 23.7488 12.3229 24.6072 12.2326C25.6895 12.1187 26.7184 11.962 27.7014 11.7644C28.4758 14.1492 28.9289 16.881 29.0182 19.7553H22.0247ZM33.446 31.7567L33.4513 31.7457C32.3108 31.1982 31.0714 30.7338 29.753 30.3589C30.5657 27.7994 31.0391 24.8985 31.1283 21.8646H37.5416C37.3037 25.6414 35.7982 29.0792 33.446 31.7567Z" fill="#0096D1"/>
</g>
</g>
<defs>
<clipPath id="clip0_1_96">
<rect x="0.969971" y="0.809937" width="40" height="40" rx="20" fill="white"/>
</clipPath>
<clipPath id="clip1_1_96">
<rect width="40" height="40" fill="white" transform="translate(0.969971 0.809937)"/>
</clipPath>
</defs>
</svg>
