<svg width="20" height="20" viewBox="0 0 20 20" fill="none" xmlns="http://www.w3.org/2000/svg">
<rect width="20" height="20" fill="#222222"/>
<path d="M10.0083 6.77313C8.22074 6.77313 6.77887 8.215 6.77887 10.0026C6.77887 11.7902 8.22074 13.232 10.0083 13.232C11.7959 13.232 13.2378 11.7902 13.2378 10.0026C13.2378 8.215 11.7959 6.77313 10.0083 6.77313ZM10.0083 12.1022C8.85314 12.1022 7.90876 11.1606 7.90876 10.0026C7.90876 8.84459 8.85033 7.90302 10.0083 7.90302C11.1663 7.90302 12.1079 8.84459 12.1079 10.0026C12.1079 11.1606 11.1635 12.1022 10.0083 12.1022ZM14.1231 6.64103C14.1231 7.05982 13.7859 7.39429 13.3699 7.39429C12.9511 7.39429 12.6166 7.05701 12.6166 6.64103C12.6166 6.22505 12.9539 5.88777 13.3699 5.88777C13.7859 5.88777 14.1231 6.22505 14.1231 6.64103ZM16.2621 7.40553C16.2143 6.3965 15.9838 5.50271 15.2446 4.76632C14.5082 4.02992 13.6144 3.79945 12.6054 3.74886C11.5654 3.68983 8.44841 3.68983 7.40846 3.74886C6.40224 3.79664 5.50845 4.02711 4.76925 4.76351C4.03004 5.4999 3.80238 6.39369 3.75179 7.40272C3.69276 8.44267 3.69276 11.5597 3.75179 12.5996C3.79957 13.6087 4.03004 14.5025 4.76925 15.2389C5.50845 15.9752 6.39943 16.2057 7.40846 16.2563C8.44841 16.3153 11.5654 16.3153 12.6054 16.2563C13.6144 16.2085 14.5082 15.9781 15.2446 15.2389C15.981 14.5025 16.2115 13.6087 16.2621 12.5996C16.3211 11.5597 16.3211 8.44548 16.2621 7.40553ZM14.9186 13.7155C14.6993 14.2664 14.2749 14.6908 13.7212 14.9128C12.8921 15.2417 10.9246 15.1658 10.0083 15.1658C9.09205 15.1658 7.12177 15.2389 6.29544 14.9128C5.74455 14.6936 5.32014 14.2692 5.0981 13.7155C4.76925 12.8863 4.84514 10.9189 4.84514 10.0026C4.84514 9.08631 4.77206 7.11603 5.0981 6.2897C5.31733 5.73881 5.74174 5.3144 6.29544 5.09236C7.12458 4.76351 9.09205 4.8394 10.0083 4.8394C10.9246 4.8394 12.8949 4.76632 13.7212 5.09236C14.2721 5.31159 14.6965 5.736 14.9186 6.2897C15.2474 7.11884 15.1715 9.08631 15.1715 10.0026C15.1715 10.9189 15.2474 12.8891 14.9186 13.7155Z" fill="white"/>
</svg>
