<svg width="20" height="20" viewBox="0 0 20 20" fill="none" xmlns="http://www.w3.org/2000/svg">
<rect width="20" height="20" fill="#222222"/>
<path d="M15.4018 3.70947H4.60607C4.1114 3.70947 3.70947 4.11702 3.70947 4.61732V15.3934C3.70947 15.8937 4.1114 16.3012 4.60607 16.3012H15.4018C15.8965 16.3012 16.3012 15.8937 16.3012 15.3934V4.61732C16.3012 4.11702 15.8965 3.70947 15.4018 3.70947ZM7.51511 14.5024H5.64883V8.49322H7.51792V14.5024H7.51511ZM6.58197 7.67251C5.9833 7.67251 5.49987 7.18626 5.49987 6.5904C5.49987 5.99454 5.9833 5.5083 6.58197 5.5083C7.17783 5.5083 7.66408 5.99454 7.66408 6.5904C7.66408 7.18907 7.18064 7.67251 6.58197 7.67251ZM14.5109 14.5024H12.6446V11.5793C12.6446 10.8823 12.6305 9.98569 11.6749 9.98569C10.7024 9.98569 10.5534 10.7446 10.5534 11.5287V14.5024H8.68716V8.49322H10.4776V9.31394H10.5028C10.753 8.84175 11.3629 8.34426 12.2708 8.34426C14.1595 8.34426 14.5109 9.58938 14.5109 11.2083V14.5024Z" fill="white"/>
</svg>
