<svg width="24" height="25" viewBox="0 0 24 25" fill="none" xmlns="http://www.w3.org/2000/svg">
<g clip-path="url(#clip0_1_282)">
<g clip-path="url(#clip1_1_282)">
<g clip-path="url(#clip2_1_282)">
<path d="M13.6462 16.3524C12.317 16.3524 10.9878 15.8464 9.9757 14.8343C9.7008 14.5594 9.7008 14.1125 9.9757 13.8377C10.2506 13.5628 10.6974 13.5628 10.9723 13.8377C12.4468 15.3121 14.8445 15.3121 16.3189 13.8377L21.4441 8.71238C22.9186 7.23793 22.9186 4.84022 21.4441 3.36577C19.9697 1.89132 17.572 1.89132 16.0976 3.36577L11.773 7.69041C11.4981 7.96529 11.0512 7.96529 10.7764 7.69041C10.5015 7.41554 10.5015 6.9687 10.7764 6.69383L15.101 2.36921C17.1252 0.345029 20.418 0.345029 22.4408 2.36921C24.4635 4.39337 24.4649 7.68619 22.4408 9.70899L17.3155 14.8342C16.3034 15.8464 14.9741 16.3523 13.6449 16.3523L13.6462 16.3524ZM5.18873 24.81C3.85948 24.81 2.53022 24.3039 1.51814 23.2918C-0.506016 21.2677 -0.506016 17.9749 1.51814 15.9521L6.64343 10.8268C8.66761 8.80259 11.9604 8.80259 13.9832 10.8268C14.2581 11.1016 14.2581 11.5485 13.9832 11.8234C13.7083 12.0982 13.2615 12.0982 12.9866 11.8234C11.5122 10.3489 9.11444 10.3489 7.64001 11.8234L2.5147 16.9486C1.04025 18.4231 1.04025 20.8208 2.5147 22.2952C3.98913 23.7696 6.38686 23.7696 7.86131 22.2952L12.1859 17.9706C12.4608 17.6957 12.9077 17.6957 13.1825 17.9706C13.4574 18.2454 13.4574 18.6923 13.1825 18.9672L8.85792 23.2918C7.84582 24.3039 6.51656 24.81 5.1873 24.81H5.18873Z" fill="#2C2C2C"/>
</g>
</g>
</g>
<defs>
<clipPath id="clip0_1_282">
<rect width="24" height="24" fill="white" transform="translate(0 0.810059)"/>
</clipPath>
<clipPath id="clip1_1_282">
<rect width="24" height="24" fill="white" transform="translate(0 0.810059)"/>
</clipPath>
<clipPath id="clip2_1_282">
<rect width="24" height="24" fill="white" transform="translate(0 0.810059)"/>
</clipPath>
</defs>
</svg>
