<svg width="25" height="25" viewBox="0 0 25 25" fill="none" xmlns="http://www.w3.org/2000/svg">
<g clip-path="url(#clip0_1_409)">
<g clip-path="url(#clip1_1_409)">
<g clip-path="url(#clip2_1_409)">
<path d="M24.605 12.2202C24.605 5.79834 19.4019 0.595215 12.98 0.595215C6.55811 0.595215 1.35498 5.79834 1.35498 12.2202C1.35498 18.0224 5.60607 22.8318 11.1636 23.7046V15.5807H8.21045V12.2202H11.1636V9.65897C11.1636 6.74568 12.898 5.13646 15.5544 5.13646C16.8265 5.13646 18.1569 5.36334 18.1569 5.36334V8.22271H16.6906C15.2469 8.22271 14.7964 9.11897 14.7964 10.0382V12.2202H18.0204L17.5048 15.5807H14.7964V23.7046C20.3539 22.8318 24.605 18.0224 24.605 12.2202Z" fill="black"/>
</g>
</g>
</g>
<defs>
<clipPath id="clip0_1_409">
<rect width="24" height="24" fill="white" transform="translate(0.97998 0.220215)"/>
</clipPath>
<clipPath id="clip1_1_409">
<rect width="24" height="24" fill="white" transform="translate(0.97998 0.220215)"/>
</clipPath>
<clipPath id="clip2_1_409">
<rect width="24" height="24" fill="white" transform="translate(0.97998 0.220215)"/>
</clipPath>
</defs>
</svg>
