<svg width="20" height="21" viewBox="0 0 20 21" fill="none" xmlns="http://www.w3.org/2000/svg">
<rect width="20" height="20" transform="translate(0 0.949951)" fill="#222222"/>
<path d="M15.4018 4.66943H4.60607C4.1114 4.66943 3.70947 5.07698 3.70947 5.57728V16.3534C3.70947 16.8537 4.1114 17.2612 4.60607 17.2612H15.4018C15.8965 17.2612 16.3012 16.8537 16.3012 16.3534V5.57728C16.3012 5.07698 15.8965 4.66943 15.4018 4.66943ZM7.51511 15.4624H5.64883V9.45318H7.51792V15.4624H7.51511ZM6.58197 8.63247C5.9833 8.63247 5.49987 8.14623 5.49987 7.55036C5.49987 6.9545 5.9833 6.46826 6.58197 6.46826C7.17783 6.46826 7.66408 6.9545 7.66408 7.55036C7.66408 8.14904 7.18064 8.63247 6.58197 8.63247ZM14.5109 15.4624H12.6446V12.5393C12.6446 11.8422 12.6305 10.9456 11.6749 10.9456C10.7024 10.9456 10.5534 11.7045 10.5534 12.4887V15.4624H8.68716V9.45318H10.4776V10.2739H10.5028C10.753 9.80171 11.3629 9.30422 12.2708 9.30422C14.1595 9.30422 14.5109 10.5493 14.5109 12.1683V15.4624Z" fill="white"/>
</svg>
