<svg width="127" height="50" viewBox="0 0 127 50" fill="none" xmlns="http://www.w3.org/2000/svg">
<g clip-path="url(#clip0_1_1658)">
<g clip-path="url(#clip1_1_1658)">
<g clip-path="url(#clip2_1_1658)">
<g filter="url(#filter0_d_1_1658)">
<path d="M119.812 47.6263H7.00874C3.56777 47.6263 0.77832 44.8369 0.77832 41.3959V7.94843C0.77832 4.50747 3.56777 1.71801 7.00874 1.71801H119.812C123.253 1.71801 126.042 4.50747 126.042 7.94843V41.3959C126.042 44.8369 123.253 47.6263 119.812 47.6263Z" fill="#F1F2F4" stroke="#E1E3E8" stroke-width="0.655833"/>
<path d="M34.9918 16.4742H34.0229L36.8252 8.84271H37.7791L40.5813 16.4742H39.6125L37.332 10.05H37.2723L34.9918 16.4742ZM35.3496 13.4932H39.2547V14.3129H35.3496V13.4932ZM45.6137 10.7506L43.4972 16.4742H42.6028L40.4863 10.7506H41.4402L43.0202 15.3117H43.0798L44.6598 10.7506H45.6137ZM48.2846 16.6084C47.9218 16.6084 47.5927 16.5401 47.2971 16.4034C47.0014 16.2643 46.7667 16.0644 46.5928 15.8035C46.4189 15.5402 46.332 15.2222 46.332 14.8496C46.332 14.5216 46.3966 14.2558 46.5258 14.0521C46.6549 13.8459 46.8276 13.6845 47.0437 13.5677C47.2598 13.451 47.4983 13.364 47.7591 13.3069C48.0225 13.2472 48.2871 13.2001 48.5529 13.1652C48.9007 13.1206 49.1826 13.087 49.3987 13.0646C49.6174 13.0398 49.7763 12.9989 49.8757 12.9417C49.9775 12.8845 50.0285 12.7852 50.0285 12.6436V12.6137C50.0285 12.2461 49.9279 11.9604 49.7266 11.7567C49.5279 11.553 49.2261 11.4512 48.8212 11.4512C48.4013 11.4512 48.0721 11.5431 47.8337 11.7269C47.5952 11.9108 47.4275 12.107 47.3306 12.3157L46.4959 12.0175C46.645 11.6697 46.8437 11.399 47.0921 11.2052C47.3431 11.009 47.6163 10.8723 47.9119 10.7953C48.21 10.7158 48.5032 10.6761 48.7913 10.6761C48.9752 10.6761 49.1863 10.6985 49.4248 10.7432C49.6658 10.7854 49.898 10.8736 50.1216 11.0077C50.3477 11.1419 50.5353 11.3443 50.6843 11.6151C50.8333 11.8859 50.9079 12.2486 50.9079 12.7032V16.4742H50.0285V15.6992H49.9838C49.9242 15.8234 49.8248 15.9563 49.6856 16.0979C49.5465 16.2395 49.3614 16.36 49.1305 16.4594C48.8994 16.5587 48.6175 16.6084 48.2846 16.6084ZM48.4187 15.8184C48.7665 15.8184 49.0596 15.7501 49.2981 15.6135C49.5391 15.4769 49.7204 15.3004 49.8422 15.0843C49.9664 14.8682 50.0285 14.6409 50.0285 14.4024V13.5975C49.9912 13.6422 49.9093 13.6832 49.7826 13.7205C49.6583 13.7553 49.5143 13.7863 49.3503 13.8137C49.1888 13.8385 49.031 13.8609 48.877 13.8808C48.7255 13.8981 48.6025 13.913 48.5081 13.9254C48.2796 13.9553 48.0659 14.0037 47.8672 14.0707C47.671 14.1353 47.5119 14.2335 47.3902 14.3652C47.271 14.4944 47.2114 14.6707 47.2114 14.8943C47.2114 15.1998 47.3244 15.4309 47.5505 15.5874C47.779 15.7414 48.0684 15.8184 48.4187 15.8184ZM52.513 16.4742V10.7506H53.3924V16.4742H52.513ZM52.9601 9.79668C52.7888 9.79668 52.6409 9.73831 52.5167 9.62151C52.395 9.50477 52.3341 9.36442 52.3341 9.20047C52.3341 9.03651 52.395 8.89616 52.5167 8.77936C52.6409 8.66262 52.7888 8.60425 52.9601 8.60425C53.1316 8.60425 53.2782 8.66262 53.3999 8.77936C53.5241 8.89616 53.5862 9.03651 53.5862 9.20047C53.5862 9.36442 53.5241 9.50477 53.3999 9.62151C53.2782 9.73831 53.1316 9.79668 52.9601 9.79668ZM55.8825 8.84271V16.4742H55.0031V8.84271H55.8825ZM59.1776 16.6084C58.8148 16.6084 58.4857 16.5401 58.1901 16.4034C57.8944 16.2643 57.6597 16.0644 57.4858 15.8035C57.3119 15.5402 57.225 15.2222 57.225 14.8496C57.225 14.5216 57.2896 14.2558 57.4187 14.0521C57.5479 13.8459 57.7206 13.6845 57.9367 13.5677C58.1528 13.451 58.3913 13.364 58.6521 13.3069C58.9154 13.2472 59.18 13.2001 59.4458 13.1652C59.7936 13.1206 60.0756 13.087 60.2917 13.0646C60.5104 13.0398 60.6693 12.9989 60.7687 12.9417C60.8705 12.8845 60.9214 12.7852 60.9214 12.6436V12.6137C60.9214 12.2461 60.8208 11.9604 60.6196 11.7567C60.4209 11.553 60.1191 11.4512 59.7141 11.4512C59.2943 11.4512 58.9651 11.5431 58.7267 11.7269C58.4882 11.9108 58.3205 12.107 58.2236 12.3157L57.3889 12.0175C57.538 11.6697 57.7367 11.399 57.9851 11.2052C58.236 11.009 58.5093 10.8723 58.8049 10.7953C59.103 10.7158 59.3962 10.6761 59.6843 10.6761C59.8682 10.6761 60.0793 10.6985 60.3178 10.7432C60.5588 10.7854 60.791 10.8736 61.0146 11.0077C61.2407 11.1419 61.4283 11.3443 61.5773 11.6151C61.7263 11.8859 61.8009 12.2486 61.8009 12.7032V16.4742H60.9214V15.6992H60.8768C60.8171 15.8234 60.7177 15.9563 60.5786 16.0979C60.4395 16.2395 60.2544 16.36 60.0234 16.4594C59.7924 16.5587 59.5104 16.6084 59.1776 16.6084ZM59.3117 15.8184C59.6595 15.8184 59.9526 15.7501 60.1911 15.6135C60.432 15.4769 60.6134 15.3004 60.7352 15.0843C60.8593 14.8682 60.9214 14.6409 60.9214 14.4024V13.5975C60.8842 13.6422 60.8022 13.6832 60.6755 13.7205C60.5513 13.7553 60.4073 13.7863 60.2433 13.8137C60.0818 13.8385 59.924 13.8609 59.77 13.8808C59.6185 13.8981 59.4955 13.913 59.4011 13.9254C59.1726 13.9553 58.9589 14.0037 58.7602 14.0707C58.5639 14.1353 58.4049 14.2335 58.2832 14.3652C58.164 14.4944 58.1044 14.6707 58.1044 14.8943C58.1044 15.1998 58.2174 15.4309 58.4434 15.5874C58.672 15.7414 58.9614 15.8184 59.3117 15.8184ZM63.5252 16.4742V8.84271H64.4046V11.6598H64.4792C64.5437 11.5605 64.6332 11.4338 64.7475 11.2797C64.8642 11.1232 65.0307 10.9841 65.2468 10.8624C65.4654 10.7382 65.761 10.6761 66.1337 10.6761C66.6157 10.6761 67.0407 10.7966 67.4079 11.0375C67.7759 11.2785 68.0625 11.6201 68.2691 12.0623C68.475 12.5045 68.578 13.0261 68.578 13.6273C68.578 14.2335 68.475 14.7589 68.2691 15.2036C68.0625 15.6457 67.7772 15.9886 67.4119 16.232C67.0466 16.473 66.6255 16.5935 66.1488 16.5935C65.7809 16.5935 65.4865 16.5326 65.2654 16.4109C65.0443 16.2867 64.8741 16.1463 64.7549 15.9898C64.6357 15.8308 64.5437 15.6992 64.4792 15.5948H64.3748V16.4742H63.5252ZM64.3897 13.6125C64.3897 14.0447 64.4531 14.426 64.5798 14.7564C64.7065 15.0843 64.8915 15.3414 65.135 15.5277C65.3785 15.7116 65.6765 15.8035 66.0293 15.8035C66.3973 15.8035 66.7036 15.7066 66.9495 15.5129C67.1981 15.3166 67.3843 15.0533 67.5089 14.7228C67.6355 14.39 67.6985 14.0199 67.6985 13.6125C67.6985 13.21 67.6368 12.8473 67.5122 12.5244C67.3909 12.1989 67.2053 11.9418 66.9574 11.753C66.7114 11.5617 66.4019 11.466 66.0293 11.466C65.6716 11.466 65.371 11.5567 65.1275 11.7381C64.8841 11.9169 64.7003 12.1678 64.5761 12.4908C64.4518 12.8113 64.3897 13.1851 64.3897 13.6125ZM70.8025 8.84271V16.4742H69.9231V8.84271H70.8025ZM74.813 16.5935C74.2614 16.5935 73.7859 16.4718 73.3859 16.2283C72.9884 15.9824 72.6815 15.6396 72.4657 15.1998C72.2519 14.7577 72.145 14.2434 72.145 13.6571C72.145 13.0709 72.2519 12.5541 72.4657 12.107C72.6815 11.6573 72.9825 11.3071 73.3675 11.0561C73.7551 10.8028 74.207 10.6761 74.7238 10.6761C75.0222 10.6761 75.316 10.7257 75.6072 10.8252C75.8977 10.9245 76.162 11.086 76.4007 11.3096C76.6388 11.5306 76.829 11.8238 76.9707 12.189C77.1123 12.5541 77.1831 13.0038 77.1831 13.5379V13.9105H72.7714V13.1504H76.2886C76.2886 12.8274 76.2243 12.5392 76.0951 12.2858C75.9685 12.0325 75.7869 11.8325 75.5508 11.6859C75.3173 11.5394 75.0418 11.466 74.7238 11.466C74.3736 11.466 74.0706 11.553 73.8148 11.7269C73.561 11.8983 73.3662 12.1219 73.2298 12.3977C73.0927 12.6734 73.0245 12.969 73.0245 13.2845V13.7913C73.0245 14.2236 73.0993 14.59 73.2481 14.8905C73.3996 15.1887 73.6095 15.416 73.8777 15.5725C74.146 15.7265 74.4582 15.8035 74.813 15.8035C75.0445 15.8035 75.253 15.7712 75.4393 15.7066C75.6282 15.6396 75.7908 15.5402 75.9272 15.4085C76.0643 15.2744 76.1699 15.1079 76.244 14.9092L77.0939 15.1477C77.0041 15.4359 76.8539 15.6892 76.6427 15.9079C76.4316 16.124 76.1705 16.2929 75.8603 16.4146C75.5495 16.5339 75.2006 16.5935 74.813 16.5935ZM83.7972 16.5935C83.2804 16.5935 82.8272 16.4705 82.437 16.2246C82.0494 15.9786 81.7464 15.6346 81.528 15.1924C81.3116 14.7502 81.2041 14.2335 81.2041 13.6422C81.2041 13.046 81.3116 12.5256 81.528 12.0809C81.7464 11.6362 82.0494 11.2909 82.437 11.045C82.8272 10.7991 83.2804 10.6761 83.7972 10.6761C84.314 10.6761 84.7665 10.7991 85.1535 11.045C85.5437 11.2909 85.8467 11.6362 86.0631 12.0809C86.2815 12.5256 86.391 13.046 86.391 13.6422C86.391 14.2335 86.2815 14.7502 86.0631 15.1924C85.8467 15.6346 85.5437 15.9786 85.1535 16.2246C84.7665 16.4705 84.314 16.5935 83.7972 16.5935ZM83.7972 15.8035C84.1901 15.8035 84.5127 15.7029 84.7659 15.5016C85.0197 15.3004 85.2073 15.0359 85.3286 14.708C85.4506 14.38 85.5116 14.0248 85.5116 13.6422C85.5116 13.2597 85.4506 12.9032 85.3286 12.5728C85.2073 12.2424 85.0197 11.9754 84.7659 11.7716C84.5127 11.5679 84.1901 11.466 83.7972 11.466C83.405 11.466 83.0817 11.5679 82.8286 11.7716C82.5754 11.9754 82.3878 12.2424 82.2659 12.5728C82.1439 12.9032 82.0835 13.2597 82.0835 13.6422C82.0835 14.0248 82.1439 14.38 82.2659 14.708C82.3878 15.0359 82.5754 15.3004 82.8286 15.5016C83.0817 15.7029 83.405 15.8035 83.7972 15.8035ZM88.613 13.0311V16.4742H87.7335V10.7506H88.5828V11.645H88.6576C88.7914 11.3543 88.9953 11.1207 89.2688 10.9444C89.5417 10.7655 89.8945 10.6761 90.3267 10.6761C90.7143 10.6761 91.0534 10.7556 91.3439 10.9146C91.6351 11.0711 91.8607 11.3096 92.022 11.63C92.184 11.948 92.2647 12.3504 92.2647 12.8373V16.4742H91.3852V12.897C91.3852 12.4473 91.2685 12.0971 91.035 11.8462C90.8015 11.5927 90.4808 11.466 90.0735 11.466C89.7928 11.466 89.5417 11.5269 89.3207 11.6486C89.1023 11.7704 88.9298 11.948 88.8025 12.1815C88.676 12.415 88.613 12.6982 88.613 13.0311Z" fill="#111722"/>
<path fill-rule="evenodd" clip-rule="evenodd" d="M42.9265 31.1383C41.8427 31.1383 41.049 31.9646 40.9637 33.1552H44.8467C44.7955 31.9379 44.0274 31.1383 42.9265 31.1383ZM44.8808 35.9986H47.1679C46.8948 37.8556 45.2393 39.0818 42.9948 39.0818C40.1956 39.0818 38.4888 37.2248 38.4888 34.1948C38.4888 31.156 40.2041 29.219 42.9009 29.219C45.555 29.219 47.2447 31.0582 47.2447 33.9549V34.7457H40.938V34.9057C40.938 36.2474 41.783 37.1626 43.0374 37.1626C43.9336 37.1626 44.6504 36.7184 44.8808 35.9986ZM48.3713 32.2045C48.3713 33.5995 49.2588 34.5325 50.9912 34.9412L52.681 35.3322C53.5003 35.5365 53.8075 35.7942 53.8075 36.2652C53.8075 36.8782 53.2272 37.2603 52.2884 37.2603C51.2984 37.2603 50.684 36.8071 50.5731 36.0163H48.1409C48.2689 37.8645 49.7794 39.0818 52.2201 39.0818C54.6353 39.0818 56.2909 37.8556 56.2909 35.9897C56.2909 34.5769 55.5484 33.8305 53.7136 33.404L51.9641 33.0131C51.1619 32.8176 50.7694 32.5066 50.7694 32.0446C50.7694 31.4403 51.3411 31.0405 52.1946 31.0405C53.1162 31.0405 53.7136 31.5114 53.7563 32.2578H56.052C56.0263 30.4185 54.5158 29.219 52.2287 29.219C49.8818 29.219 48.3713 30.4007 48.3713 32.2045ZM57.571 38.913H60.063V29.3878H57.571V38.913ZM72.8407 29.2979C72.8413 29.296 72.8413 29.294 72.842 29.292C72.8577 29.2969 72.8735 29.3018 72.8885 29.3068C74.3124 29.5826 75.2279 30.7701 75.2279 32.4444V38.696C75.4653 39.5531 76.2241 40.1801 77.1239 40.1801H84.5879C85.6773 40.1801 86.5607 39.2608 86.5607 38.1266V30.3514C86.5607 29.2173 85.6773 28.2978 84.5879 28.2978H77.1239C76.5199 28.2978 75.9788 28.5805 75.6175 29.0257C75.1157 28.3242 74.4547 27.8365 73.6329 27.5627C74.437 26.4729 75.7014 25.7704 77.1239 25.7704H84.5879C87.0178 25.7704 88.9879 27.8214 88.9879 30.3514V38.1266C88.9879 40.6566 87.0178 42.7076 84.5879 42.7076H77.1239C74.9511 42.7076 73.1463 41.0683 72.7882 38.913H72.7364V38.4721C72.7279 38.3581 72.7239 38.2428 72.7239 38.1266V32.8127C72.6393 31.8892 72.1219 31.387 71.2424 31.387C70.2954 31.387 69.6723 32.1067 69.6723 33.1641V38.913H67.2746V33.0131C67.2746 31.9912 66.7198 31.387 65.7979 31.387C64.8506 31.387 64.2106 32.1334 64.2106 33.1997V38.913H61.7186V29.3878H64.1252V31.1293H64.1764C64.5604 29.9742 65.5675 29.2457 66.788 29.2457C68.1108 29.2457 69.0322 29.9564 69.3398 31.2004H69.391C69.8002 30.0009 70.8928 29.2457 72.2327 29.2457C72.4439 29.2457 72.6472 29.2634 72.8407 29.2979ZM58.817 28.3393C58.0831 28.3393 57.4857 27.7528 57.4857 26.9976C57.4857 26.2246 58.0831 25.6559 58.817 25.6559C59.5509 25.6559 60.1483 26.2246 60.1483 26.9976C60.1483 27.7528 59.5509 28.3393 58.817 28.3393ZM76.7796 32.2045C76.7796 30.4007 78.29 29.219 80.6366 29.219C82.9241 29.219 84.4345 30.4185 84.4601 32.2578H82.1646C82.122 31.5114 81.5245 31.0405 80.6024 31.0405C79.7492 31.0405 79.1773 31.4403 79.1773 32.0446C79.1773 32.5066 79.5702 32.8176 80.3722 33.0131L82.122 33.404C83.9564 33.8305 84.6988 34.5769 84.6988 35.9897C84.6988 37.8556 83.0435 39.0818 80.628 39.0818C78.1877 39.0818 76.6773 37.8645 76.5487 36.0163H78.9812C79.0921 36.8071 79.7066 37.2603 80.6969 37.2603C81.6354 37.2603 82.2158 36.8782 82.2158 36.2652C82.2158 35.7942 81.9082 35.5365 81.0891 35.3322L79.3997 34.9412C77.6669 34.5325 76.7796 33.5995 76.7796 32.2045Z" fill="#111722"/>
</g>
</g>
</g>
</g>
<defs>
<filter id="filter0_d_1_1658" x="0.450195" y="1.39014" width="125.92" height="47.2199" filterUnits="userSpaceOnUse" color-interpolation-filters="sRGB">
<feFlood flood-opacity="0" result="BackgroundImageFix"/>
<feColorMatrix in="SourceAlpha" type="matrix" values="0 0 0 0 0 0 0 0 0 0 0 0 0 0 0 0 0 0 127 0" result="hardAlpha"/>
<feOffset dy="0.655833"/>
<feComposite in2="hardAlpha" operator="out"/>
<feColorMatrix type="matrix" values="0 0 0 0 0.882353 0 0 0 0 0.890196 0 0 0 0 0.909804 0 0 0 1 0"/>
<feBlend mode="normal" in2="BackgroundImageFix" result="effect1_dropShadow_1_1658"/>
<feBlend mode="normal" in="SourceGraphic" in2="effect1_dropShadow_1_1658" result="shape"/>
</filter>
<clipPath id="clip0_1_1658">
<rect width="125.92" height="50" fill="white" transform="translate(0.450195)"/>
</clipPath>
<clipPath id="clip1_1_1658">
<rect width="125.92" height="50" fill="white" transform="translate(0.450195)"/>
</clipPath>
<clipPath id="clip2_1_1658">
<rect width="125.92" height="49.9976" fill="white" transform="translate(0.450195 0.0012207)"/>
</clipPath>
</defs>
</svg>
