<svg width="25" height="25" viewBox="0 0 25 25" fill="none" xmlns="http://www.w3.org/2000/svg">
<g clip-path="url(#clip0_1_401)">
<g clip-path="url(#clip1_1_401)">
<path d="M21.98 1.72021H3.97529C3.15029 1.72021 2.47998 2.3999 2.47998 3.23428V21.2062C2.47998 22.0405 3.15029 22.7202 3.97529 22.7202H21.98C22.805 22.7202 23.48 22.0405 23.48 21.2062V3.23428C23.48 2.3999 22.805 1.72021 21.98 1.72021ZM8.82686 19.7202H5.71436V9.69834H8.83154V19.7202H8.82686ZM7.27061 8.32959C6.27217 8.32959 5.46592 7.51865 5.46592 6.5249C5.46592 5.53115 6.27217 4.72021 7.27061 4.72021C8.26436 4.72021 9.07529 5.53115 9.07529 6.5249C9.07529 7.52334 8.26904 8.32959 7.27061 8.32959ZM20.494 19.7202H17.3815V14.8452C17.3815 13.6827 17.3581 12.1874 15.7644 12.1874C14.1425 12.1874 13.894 13.453 13.894 14.7608V19.7202H10.7815V9.69834H13.7675V11.0671H13.8097C14.2269 10.2796 15.244 9.4499 16.7581 9.4499C19.9081 9.4499 20.494 11.5265 20.494 14.2265V19.7202Z" fill="black"/>
</g>
</g>
<defs>
<clipPath id="clip0_1_401">
<rect width="24" height="24" fill="white" transform="translate(0.97998 0.220215)"/>
</clipPath>
<clipPath id="clip1_1_401">
<rect width="24" height="24" fill="white" transform="translate(0.97998 0.220215)"/>
</clipPath>
</defs>
</svg>
