<svg width="25" height="25" viewBox="0 0 25 25" fill="none" xmlns="http://www.w3.org/2000/svg">
<g clip-path="url(#clip0_1_405)">
<g clip-path="url(#clip1_1_405)">
<path d="M12.9846 6.82949C10.0034 6.82949 7.59871 9.23418 7.59871 12.2154C7.59871 15.1967 10.0034 17.6014 12.9846 17.6014C15.9659 17.6014 18.3706 15.1967 18.3706 12.2154C18.3706 9.23418 15.9659 6.82949 12.9846 6.82949ZM12.9846 15.717C11.0581 15.717 9.48308 14.1467 9.48308 12.2154C9.48308 10.2842 11.0534 8.71387 12.9846 8.71387C14.9159 8.71387 16.4862 10.2842 16.4862 12.2154C16.4862 14.1467 14.9112 15.717 12.9846 15.717ZM19.8471 6.60918C19.8471 7.30762 19.2846 7.86543 18.5909 7.86543C17.8925 7.86543 17.3346 7.30293 17.3346 6.60918C17.3346 5.91543 17.8971 5.35293 18.5909 5.35293C19.2846 5.35293 19.8471 5.91543 19.8471 6.60918ZM23.4143 7.88418C23.3346 6.20137 22.9503 4.71074 21.7175 3.48262C20.4893 2.25449 18.9987 1.87012 17.3159 1.78574C15.5815 1.6873 10.3831 1.6873 8.64871 1.78574C6.97058 1.86543 5.47996 2.2498 4.24714 3.47793C3.01433 4.70605 2.63464 6.19668 2.55027 7.87949C2.45183 9.61387 2.45183 14.8123 2.55027 16.5467C2.62996 18.2295 3.01433 19.7201 4.24714 20.9482C5.47996 22.1764 6.96589 22.5607 8.64871 22.6451C10.3831 22.7436 15.5815 22.7436 17.3159 22.6451C18.9987 22.5654 20.4893 22.1811 21.7175 20.9482C22.9456 19.7201 23.33 18.2295 23.4143 16.5467C23.5128 14.8123 23.5128 9.61856 23.4143 7.88418ZM21.1737 18.4076C20.8081 19.3264 20.1003 20.0342 19.1768 20.4045C17.794 20.9529 14.5128 20.8264 12.9846 20.8264C11.4565 20.8264 8.17058 20.9482 6.79246 20.4045C5.87371 20.0389 5.16589 19.3311 4.79558 18.4076C4.24714 17.0248 4.37371 13.7436 4.37371 12.2154C4.37371 10.6873 4.25183 7.40137 4.79558 6.02324C5.16121 5.10449 5.86902 4.39668 6.79246 4.02637C8.17527 3.47793 11.4565 3.60449 12.9846 3.60449C14.5128 3.60449 17.7987 3.48262 19.1768 4.02637C20.0956 4.39199 20.8034 5.0998 21.1737 6.02324C21.7221 7.40605 21.5956 10.6873 21.5956 12.2154C21.5956 13.7436 21.7221 17.0295 21.1737 18.4076Z" fill="black"/>
</g>
</g>
<defs>
<clipPath id="clip0_1_405">
<rect width="24" height="24" fill="white" transform="translate(0.97998 0.220215)"/>
</clipPath>
<clipPath id="clip1_1_405">
<rect width="24" height="24" fill="white" transform="translate(0.97998 0.220215)"/>
</clipPath>
</defs>
</svg>
