<svg width="20" height="21" viewBox="0 0 20 21" fill="none" xmlns="http://www.w3.org/2000/svg">
<rect width="20" height="20" transform="translate(0 0.949951)" fill="#222222"/>
<path d="M10.0081 7.73309C8.2205 7.73309 6.77863 9.17496 6.77863 10.9625C6.77863 12.7501 8.2205 14.192 10.0081 14.192C11.7957 14.192 13.2375 12.7501 13.2375 10.9625C13.2375 9.17496 11.7957 7.73309 10.0081 7.73309ZM10.0081 13.0621C8.8529 13.0621 7.90852 12.1205 7.90852 10.9625C7.90852 9.80455 8.85009 8.86298 10.0081 8.86298C11.1661 8.86298 12.1076 9.80455 12.1076 10.9625C12.1076 12.1205 11.1633 13.0621 10.0081 13.0621ZM14.1229 7.60099C14.1229 8.01978 13.7856 8.35425 13.3696 8.35425C12.9508 8.35425 12.6164 8.01697 12.6164 7.60099C12.6164 7.18501 12.9537 6.84773 13.3696 6.84773C13.7856 6.84773 14.1229 7.18501 14.1229 7.60099ZM16.2618 8.36549C16.214 7.35646 15.9836 6.46267 15.2443 5.72628C14.508 4.98989 13.6142 4.75941 12.6051 4.70882C11.5652 4.64979 8.44816 4.64979 7.40822 4.70882C6.402 4.7566 5.50821 4.98707 4.769 5.72347C4.0298 6.45986 3.80214 7.35365 3.75154 8.36268C3.69252 9.40263 3.69252 12.5197 3.75154 13.5596C3.79932 14.5686 4.0298 15.4624 4.769 16.1988C5.50821 16.9352 6.39919 17.1657 7.40822 17.2163C8.44816 17.2753 11.5652 17.2753 12.6051 17.2163C13.6142 17.1685 14.508 16.938 15.2443 16.1988C15.9807 15.4624 16.2112 14.5686 16.2618 13.5596C16.3208 12.5197 16.3208 9.40544 16.2618 8.36549ZM14.9183 14.6754C14.6991 15.2263 14.2747 15.6507 13.721 15.8728C12.8918 16.2016 10.9244 16.1257 10.0081 16.1257C9.09181 16.1257 7.12153 16.1988 6.29519 15.8728C5.7443 15.6535 5.31989 15.2291 5.09785 14.6754C4.769 13.8463 4.84489 11.8788 4.84489 10.9625C4.84489 10.0463 4.77181 8.07599 5.09785 7.24966C5.31708 6.69877 5.74149 6.27436 6.29519 6.05232C7.12434 5.72347 9.09181 5.79936 10.0081 5.79936C10.9244 5.79936 12.8946 5.72628 13.721 6.05232C14.2719 6.27155 14.6963 6.69596 14.9183 7.24966C15.2472 8.0788 15.1713 10.0463 15.1713 10.9625C15.1713 11.8788 15.2472 13.8491 14.9183 14.6754Z" fill="white"/>
</svg>
