<svg width="39" height="39" viewBox="0 0 39 39" fill="none" xmlns="http://www.w3.org/2000/svg">
<g clip-path="url(#clip0_1_189)">
<g clip-path="url(#clip1_1_189)">
<g clip-path="url(#clip2_1_189)">
<path d="M16.0533 19.7733H16.94L16.56 18L16.0533 19.7733Z" fill="#C70D20"/>
<path d="M36.32 16.4801C35.6867 15.9734 34.9267 15.4667 34.9267 15.0867C34.8 14.7067 35.18 13.8201 35.4333 13.0601C35.94 11.9201 36.4467 10.7801 35.94 9.89339C35.4333 9.00673 34.1667 8.88006 32.9 8.62673C32.14 8.50006 31.2533 8.50006 30.8733 8.12006C30.62 7.86673 30.4933 6.98006 30.3667 6.0934C30.24 4.82673 30.1133 3.56006 29.1 3.0534C28.34 2.54673 27.0733 3.0534 25.9333 3.56006C25.1733 3.94006 24.2867 4.1934 23.9067 4.06673C23.5267 3.94006 23.02 3.30673 22.5133 2.6734C21.7533 1.66006 20.9933 0.646729 19.8533 0.646729C18.7133 0.646728 17.9533 1.66006 17.1933 2.6734C16.6867 3.30673 16.18 4.06673 15.8 4.06673C15.42 4.1934 14.5333 3.8134 13.7733 3.56006C12.8867 3.18006 11.62 2.80006 10.7333 3.18006C9.84668 3.8134 9.72001 5.08006 9.59334 6.22006C9.46668 6.98006 9.34001 7.86673 9.08668 8.24673C8.83334 8.50006 7.82001 8.62673 7.06001 8.7534C5.79334 8.88006 4.52668 9.00673 4.02001 10.0201C3.51334 10.9067 4.02001 12.0467 4.52668 13.1867C4.90668 13.9467 5.16001 14.7067 5.03334 15.2134C4.90668 15.5934 4.27334 16.1001 3.64001 16.6067C2.62668 17.3667 1.61334 18.1267 1.61334 19.2667C1.61334 20.4067 2.62668 21.1667 3.64001 21.9267C4.27334 22.4334 5.03334 22.9401 5.03334 23.3201C5.16001 23.7001 4.78001 24.5867 4.52668 25.3467C4.02001 26.4867 3.51334 27.6267 4.02001 28.5134C4.52668 29.4001 5.79334 29.5267 7.06001 29.7801C7.82001 29.9067 8.70668 29.9067 9.08668 30.2867C9.34001 30.5401 9.46668 31.4267 9.59334 32.3134C9.72001 33.5801 9.84667 34.8467 10.86 35.3534C11.62 35.8601 12.8867 35.3534 14.0267 34.8467C14.7867 34.4667 15.6733 34.2134 16.0533 34.3401C16.4333 34.4667 16.94 35.1001 17.4467 35.7334C18.2067 36.7467 18.9667 37.7601 20.1067 37.7601C21.2467 37.7601 22.0067 36.7467 22.7667 35.7334C23.2733 35.1001 23.78 34.3401 24.16 34.3401C24.54 34.2134 25.4267 34.5934 26.1867 34.8467C27.3267 35.3534 28.5933 35.7334 29.3533 35.3534C30.24 34.8467 30.3667 33.5801 30.62 32.3134C30.7467 31.5534 30.7467 30.6667 31.1267 30.2867C31.38 30.0334 32.2667 29.9067 33.1533 29.7801C34.42 29.6534 35.6867 29.5267 36.1933 28.5134C36.7 27.6267 36.1933 26.4867 35.6867 25.3467C35.3067 24.5867 35.0533 23.8267 35.18 23.3201C35.3067 22.9401 35.94 22.4334 36.5733 21.9267C37.5867 21.1667 38.6 20.4067 38.6 19.2667C38.6 18.1267 37.3333 17.2401 36.32 16.4801ZM10.48 22.3067C9.08668 22.3067 8.07334 21.4201 7.94668 20.2801C7.94668 19.9001 8.20001 19.6467 8.58001 19.6467C8.83334 19.6467 9.21334 19.9001 9.21334 20.2801C9.21334 20.7867 9.84668 21.1667 10.48 21.1667C11.1133 21.1667 11.7467 20.7867 11.7467 20.1534C11.7467 19.6467 11.3667 19.3934 10.48 19.2667H10.3533C8.45334 18.8867 8.07334 17.8734 8.07334 17.1134C8.07334 15.8467 9.21334 14.8334 10.6067 14.8334C12 14.8334 13.0133 15.7201 13.14 16.8601C13.14 17.2401 12.8867 17.4934 12.5067 17.4934C12.1267 17.4934 11.8733 17.2401 11.8733 16.8601C11.8733 16.3534 11.24 15.9734 10.6067 15.9734C9.97334 15.9734 9.34001 16.3534 9.34001 16.9867C9.34001 17.4934 9.72001 17.7467 10.6067 17.8734V18.5067L10.7333 17.8734C12.6333 18.2534 13.0133 19.2667 13.0133 20.0267C13.0133 21.2934 11.8733 22.3067 10.48 22.3067ZM18.2067 22.3067H18.08C17.8267 22.3067 17.5733 22.0534 17.4467 21.8001L17.1933 21.0401H15.6733L15.42 21.8001C15.2933 22.1801 15.04 22.3067 14.66 22.3067C14.28 22.1801 14.1533 21.9267 14.1533 21.5467L15.8 15.2134C15.9267 14.7067 16.94 14.7067 17.0667 15.2134L18.7133 21.5467C18.84 21.8001 18.5867 22.1801 18.2067 22.3067ZM25.0467 22.3067H21.2467C20.8667 22.3067 20.6133 22.0534 20.6133 21.6734V15.3401C20.6133 14.9601 20.8667 14.7067 21.2467 14.7067C21.6267 14.7067 21.88 14.9601 21.88 15.3401V21.0401H25.0467C25.4267 21.0401 25.68 21.2934 25.68 21.6734C25.68 22.0534 25.4267 22.3067 25.0467 22.3067ZM31.38 17.8734C31.76 17.8734 32.0133 18.1267 32.0133 18.5067C32.0133 18.8867 31.76 19.1401 31.38 19.1401H28.2133V21.0401H31.38C31.76 21.0401 32.0133 21.2934 32.0133 21.6734C32.0133 22.0534 31.76 22.3067 31.38 22.3067H27.58C27.2 22.3067 26.9467 22.0534 26.9467 21.6734V15.3401C26.9467 14.9601 27.2 14.7067 27.58 14.7067H31.38C31.76 14.7067 32.0133 14.9601 32.0133 15.3401C32.0133 15.7201 31.76 15.9734 31.38 15.9734H28.2133V17.8734H31.38Z" fill="#F44336"/>
</g>
</g>
</g>
<defs>
<clipPath id="clip0_1_189">
<rect width="38" height="38" fill="white" transform="translate(0.980011 0.140015)"/>
</clipPath>
<clipPath id="clip1_1_189">
<rect width="38" height="38" fill="white" transform="translate(0.980011 0.140015)"/>
</clipPath>
<clipPath id="clip2_1_189">
<rect width="38" height="38" fill="white" transform="translate(0.980011 0.140015)"/>
</clipPath>
</defs>
</svg>
