<svg width="18" height="19" viewBox="0 0 18 19" fill="none" xmlns="http://www.w3.org/2000/svg">
<path d="M13.0522 18.3398H4.94762C3.55133 18.3398 2.42822 17.2167 2.42822 15.8204V2.85924C2.42822 1.46295 3.55133 0.339844 4.94762 0.339844H13.0522C14.4485 0.339844 15.5716 1.46295 15.5716 2.85924V15.8204C15.5716 17.2167 14.4485 18.3398 13.0522 18.3398ZM4.94762 2.16109C4.55301 2.16109 4.24947 2.46463 4.24947 2.85924V15.8204C4.24947 16.2151 4.55301 16.5186 4.94762 16.5186H13.0522C13.4468 16.5186 13.7503 16.2151 13.7503 15.8204V2.85924C13.7503 2.46463 13.4468 2.16109 13.0522 2.16109H4.94762Z" fill="white"/>
<path d="M9.01512 15.1223C8.4991 15.1223 8.10449 14.7277 8.10449 14.2116C8.10449 13.6956 8.4991 13.301 9.01512 13.301C9.53114 13.301 9.92574 13.6956 9.92574 14.2116C9.92574 14.7277 9.53114 15.1223 9.01512 15.1223Z" fill="white"/>
</svg>
